# xmcd CD database file
# Copyright (C) 1996 Ti Kan
#
# Track frame offsets:
# 	183
# 	19280
# 	34433
# 	45095
# 	59408
# 	70668
# 	81680
# 	96158
# 	117318
# 	128423
# 	141690
# 	157363
# 	171158
# 	187215
# 	200558
# 	217808
#
# Disc length: 3058 seconds
#
# Revision: 1
# Processed by: cddbd v1.4b41PL1 Copyright (c) Steve Scherf et al.
# Submitted via: DiscPlay 3.4.1
#
DISCID=f60bf010
DTITLE=GENE ROCKWELL - AFTER ALL THESE YEARS
DYEAR=1900
DGENRE=
TTITLE0=AFTER ALL THESE YEARS
TTITLE1=HEART
TTITLE2=CRAZY LOVE
TTITLE3=CIAOU
TTITLE4=TORTURE
TTITLE5=LOVE
TTITLE6=ROSIE
TTITLE7=THESE OLD EYES HAVE SEEN IT ALL
TTITLE8=SAVE THE LAST DANCE FOR ME
TTITLE9=WASTED DAYS AND WASTED NIGHTS
TTITLE10=MY LIFE'S IN GOOD HANDS
TTITLE11=WHOLE LOTTA WOMAN
TTITLE12=SHAME ON ME
TTITLE13=HOW OLD DO YOU GET
TTITLE14=ANNABELLE
TTITLE15=HONKY TONK LULLABYE
EXTD=
EXTT0=
EXTT1=
EXTT2=
EXTT3=
EXTT4=
EXTT5=
EXTT6=
EXTT7=
EXTT8=
EXTT9=
EXTT10=
EXTT11=
EXTT12=
EXTT13=
EXTT14=
EXTT15=
PLAYORDER=
